Coordinates
version=1
nRows=8
nColumns=33
inDegrees=yes

Units are S.I. units (second, meters, Newtons, ...)
Angles are in degrees.

endheader
time	ground_thorax_rot_x	ground_thorax_rot_y	ground_thorax_rot_z	ground_thorax_tx	ground_thorax_ty	ground_thorax_tz	clav_prot_r	clav_elev_r	scapula_abduction_r	scapula_elevation_r	scapula_upward_rot_r	scapula_winging_r	shoulder_elv_r	plane_of_elev_r	axial_rot_r	elbow_flexion_r	pro_sup_r	wrist_flex_r	wrist_dev_r	clav_prot_l	clav_elev_l	scapula_abduction_l	scapula_elevation_l	scapula_upward_rot_l	scapula_winging_l	shoulder_elv_l	plane_of_elev_l	axial_rot_l	elbow_flexion_l	pro_sup_l	wrist_flex_l	wrist_dev_l
      6.02000000	     -3.95222972	      5.88493367	      8.57973119	     -0.09057304	      1.02724494	      0.01201846	     16.75708921	    -15.26132913	     41.36729956	    -15.00128228	     22.31010005	    -10.20818310	     -0.72450182	    -54.43385125	    124.35132055	    -31.59204777	   -128.65766462	      0.34192108	      6.39324356	     26.77221742	    -10.88990366	    -40.33728907	     -6.62567198	    -26.36829152	     14.18714958	     56.19564530	      3.47441626	      9.81171537	     14.12221433	     22.29288516	     15.34790455	     -7.68870002
      6.03000000	     -4.00729037	      5.85141688	      8.54254457	     -0.09012223	      1.02749909	      0.01194493	     16.76279911	    -15.25085106	     41.35903788	    -14.98469412	     22.28289053	    -10.21648116	     -0.74830039	    -54.45443671	    124.35905615	    -31.57981610	   -128.65987829	      0.34334339	      6.39595256	     26.77464219	    -10.91329966	    -40.33830912	     -6.60467024	    -26.36363595	     14.18298036	     56.18511130	      3.49389081	      9.81229165	     14.12003489	     22.29097741	     15.34524831	     -7.68829891
      6.04000000	     -4.12622603	      5.91679452	      8.50053077	     -0.08995388	      1.02772547	      0.01201867	     16.78556052	    -15.18441698	     41.35750065	    -14.90980015	     22.22262407	    -10.27036769	     -0.90967970	    -54.48953968	    124.45158584	    -31.61097440	   -128.71114945	      0.39376002	      6.41400736	     26.76993574	    -10.93367174	    -40.32977276	     -6.54480404	    -26.27079486	     14.17906982	     56.27727253	      3.48426760	      9.88829811	     13.99921356	     22.27299055	     15.28699972	     -7.65982992
      6.05000000	     -4.13025919	      5.85627731	      8.44549102	     -0.08980852	      1.02793564	      0.01208942	     16.77493336	    -15.14138151	     41.31537881	    -14.86097459	     22.18083080	    -10.28695795	     -0.91551281	    -54.57474825	    124.43326677	    -31.59904228	   -128.72526287	      0.39460271	      6.41672222	     26.77065674	    -10.91200552	    -40.33287566	     -6.56066531	    -26.26646064	     14.18493994	     56.29864557	      3.45719942	      9.89939265	     13.97082957	     22.27056979	     15.27466844	     -7.65449071
      6.06000000	     -4.13096669	      5.80622901	      8.40092781	     -0.08987586	      1.02791278	      0.01219042	     16.75567213	    -15.08188916	     41.25562110	    -14.79589515	     22.13016632	    -10.31265983	     -0.90543016	    -54.69826497	    124.39872564	    -31.58528158	   -128.74802167	      0.38863693	      6.42032812	     26.76448617	    -10.87410529	    -40.33045373	     -6.58774770	    -26.25529756	     14.19212188	     56.33269208	      3.42159526	      9.91608840	     13.95287240	     22.26560538	     15.25796193	     -7.65146623
      6.07000000	     -3.58393269	      5.84936089	      8.33254669	     -0.08925826	      1.02744103	      0.01248766	     16.44499697	    -14.02492916	     41.30501111	    -14.07703615	     22.82837341	    -10.92395400	     -1.84530391	    -55.26927874	    124.32166387	    -32.03190894	   -132.46701761	      0.17064759	      7.08840962	     26.41981227	    -11.08148445	    -39.73908327	     -6.33674527	    -26.03392548	     13.78658470	     55.95736127	      3.36866516	      9.58255088	     13.91559485	     21.73824404	     13.71210128	     -7.89712022
      6.08000000	     -3.56778635	      5.79186634	      8.29748258	     -0.08965401	      1.02744477	      0.01257136	     16.43115465	    -13.97809015	     41.24970880	    -14.02282025	     22.77442590	    -10.93745204	     -1.80172067	    -55.39460343	    124.27041352	    -32.01682842	   -132.48082474	      0.16138891	      7.07426218	     26.41349028	    -11.01241504	    -39.73753991	     -6.39270924	    -26.02978821	     13.80110809	     56.01022298	      3.30646910	      9.58965224	     13.92010586	     21.73116681	     13.70922908	     -7.89868532
      6.09000000	     -3.54844062	      5.59802015	      8.49135056	     -0.08962299	      1.02688400	      0.01268997	     16.53717705	    -13.95520350	     41.03007404	    -13.84577625	     22.19875877	    -10.93874426	     -1.98962688	    -55.47545780	    124.01192164	    -32.78159052	   -133.37880309	      0.35391750	      6.77275269	     26.18119401	    -10.80110260	    -39.38101061	     -6.68119446	    -26.23965935	     13.61272852	     55.92437526	      2.88125941	      9.48707674	     14.93303754	     21.40128718	     13.74098236	     -8.17035715
